<?xml version="1.0" encoding="UTF-8" standalone="no"?> <svg xmlns="http://www.w3.org/2000/svg" viewBox="0 0 24 24"><defs><style>.cls-1{fill:#3fa9f5;}</style></defs><title>Checklist, document, list, note</title><g id="_01" data-name="01"><rect class="cls-1" x="4.1" y="3" width="3.8" height="18"/><path d="M4.1,22a1,1,0,0,1-1-1V3a1,1,0,0,1,1-1H7.9a1,1,0,0,1,0,2H5.1V21A1,1,0,0,1,4.1,22Z"/><path d="M19.9,22H7.9a1,1,0,1,1,0-2h11V4H8.9V16.1a1,1,0,0,1-2,0V3a1,1,0,0,1,1-1h12a1,1,0,0,1,1,1V21A1,1,0,0,1,19.9,22Z"/><path d="M16.3,8.8H11.5a1,1,0,1,1,0-2h4.8a1,1,0,0,1,0,2Z"/><path d="M16.3,12.4H11.5a1,1,0,0,1,0-2h4.8a1,1,0,0,1,0,2Z"/><path d="M16.3,16H11.5a1,1,0,0,1,0-2h4.8a1,1,0,0,1,0,2Z"/></g></svg>