<svg width="317" height="185" viewBox="0 0 317 185" fill="none" xmlns="http://www.w3.org/2000/svg">
<path d="M110.37 14.3999C99.9876 14.3999 90.3782 17.5877 82.4255 22.9739C69.3921 31.8776 60.8872 46.7172 60.8872 63.6454C60.8872 80.9032 69.8339 96.1825 83.4196 104.976L83.5301 105.416C83.6405 105.416 83.751 105.306 83.8614 105.306C91.4827 110.143 100.65 113.001 110.37 113.001C137.652 113.001 159.853 90.9062 159.853 63.7553C159.853 36.4944 137.652 14.3999 110.37 14.3999ZM71.6011 64.4148C71.6011 68.372 69.7234 71.9995 66.5203 74.3079C65.7471 70.9003 65.3053 67.3827 65.3053 63.7553C65.3053 60.5675 65.6367 57.3797 66.2994 54.4118C69.5025 56.5004 71.6011 60.2378 71.6011 64.4148ZM69.3921 82.5521C76.0193 78.9246 80.2165 71.9995 80.2165 64.3049C80.2165 56.3904 75.7984 49.3554 68.8398 45.8379C70.828 41.1112 73.6997 36.9341 77.1238 33.1967C88.39 39.5722 95.3485 51.4439 95.3485 64.3049C95.3485 76.8361 88.7214 88.4879 78.0074 94.9734C74.4729 91.3459 71.6011 87.1689 69.3921 82.5521ZM94.6858 37.044C106.725 43.1997 116.887 52.5431 124.287 64.4148C116.997 76.0666 106.836 85.4101 94.7963 91.6757C100.761 83.9811 104.185 74.4178 104.185 64.4148C104.074 54.3019 100.65 44.7386 94.6858 37.044ZM110.37 108.604C102.749 108.604 95.5694 106.735 89.2736 103.437C107.609 96.6222 122.962 83.6513 133.013 66.5033C133.786 65.1843 133.786 63.5354 133.013 62.2164C122.63 44.4089 106.836 31.328 87.9482 24.7327C94.5754 20.8854 102.197 18.7968 110.37 18.7968C135.222 18.7968 155.545 38.9127 155.545 63.7553C155.545 88.5978 135.333 108.604 110.37 108.604Z" fill="#0C2437"/>
<path d="M221.817 152.903L186.472 117.727C182.606 113.88 177.194 112.671 172.334 113.88L161.068 102.778C169.462 92.0055 174.543 78.4849 174.543 63.7553C174.543 28.5799 145.826 0 110.481 0C86.1809 0 64.974 13.6304 54.1496 33.5265C53.045 33.3066 52.1614 33.3066 51.1673 33.3066H51.7196H51.0569C30.2917 33.3066 10.9625 44.4088 0.579878 62.2164C-0.193293 63.5354 -0.193293 65.4041 0.579878 66.7232C10.9625 84.6406 30.2917 95.9627 51.0569 95.9627H51.7196V95.7428V95.6329C52.8241 95.6329 53.9287 95.523 55.1436 95.4131C66.1889 114.54 86.8436 127.511 110.591 127.511C125.392 127.511 138.867 122.454 149.691 114.1L160.847 125.312C159.632 130.149 160.847 135.645 164.713 139.382L200.058 174.558C202.93 177.416 206.685 178.845 210.551 178.845C214.306 178.845 218.062 177.416 221.044 174.558L221.928 173.678C227.561 167.962 227.561 158.619 221.817 152.903ZM46.5283 69.3613C45.2029 68.1522 44.3193 66.3934 44.3193 64.4148C44.3193 62.5461 45.0924 60.7874 46.4179 59.5782C46.3074 61.0072 46.3074 62.3263 46.3074 63.7553C46.3074 65.624 46.4179 67.4927 46.5283 69.3613ZM50.1733 41.8806C49.2896 44.2989 48.5165 46.8271 47.9642 49.3554C40.8952 50.7844 35.7039 56.9401 35.7039 64.4148C35.7039 71.8896 41.1161 78.1552 48.2956 79.4742C48.9583 82.0025 49.7314 84.5307 50.7255 86.949C38.4652 86.7292 28.414 76.7262 28.414 64.4148C28.414 52.2134 38.1339 42.4302 50.1733 41.8806ZM9.41611 64.4148C13.0611 58.9187 17.5896 54.3019 22.8914 50.6745C20.7928 54.8515 19.6882 59.4683 19.6882 64.4148C19.6882 69.3613 20.9032 73.9781 22.8914 78.1552C17.7001 74.5277 13.0611 69.911 9.41611 64.4148ZM55.0332 63.7553C55.0332 33.3066 79.8851 8.57398 110.481 8.57398C141.076 8.57398 165.928 33.3066 165.928 63.7553C165.928 94.2039 141.076 118.937 110.481 118.937C79.8851 118.937 55.0332 94.094 55.0332 63.7553ZM153.005 111.352C154.883 109.703 156.65 107.944 158.307 106.076L168.027 115.749C167.143 116.298 166.37 116.958 165.597 117.727L164.713 118.607C163.94 119.376 163.277 120.146 162.725 121.025L153.005 111.352ZM215.632 167.632L214.748 168.512C212.429 170.82 208.563 170.82 206.133 168.512L170.788 133.336C168.468 131.028 168.468 127.181 170.788 124.762L171.672 123.883C172.887 122.674 174.433 122.124 175.979 122.124C177.526 122.124 179.072 122.674 180.287 123.883L215.632 159.058C218.062 161.367 218.062 165.214 215.632 167.632Z" fill="#0C2437"/>
<rect x="148.007" y="95.9624" width="168.993" height="89.0375" fill="#0E3352"/>
<path d="M165.091 63.535C165.091 93.8256 140.409 118.431 109.901 118.431C79.3921 118.431 54.7104 93.8256 54.7104 63.535C54.7104 33.2444 79.3921 8.63895 109.901 8.63895C140.409 8.63895 165.091 33.2444 165.091 63.535Z" stroke="#808DDE" stroke-width="12.2222"/>
<line x1="7" y1="-7" x2="84.9395" y2="-7" transform="matrix(0.708806 0.705404 -0.708806 0.705404 139.171 108.054)" stroke="#808DDE" stroke-width="14" stroke-linecap="round" stroke-linejoin="round"/>
</svg>
