<svg width="197" height="246" viewBox="0 0 197 246" fill="none" xmlns="http://www.w3.org/2000/svg">
<g clip-path="url(#clip0)">
<path d="M189.511 68.1948L100.245 6.6948C99.1926 5.97218 97.8043 5.97218 96.7516 6.6948L7.486 68.1948C6.65183 68.7668 6.15625 69.7139 6.15625 70.7255V187.576C6.15625 189.273 7.53217 190.651 9.23438 190.651H30.0117C31.7139 190.651 33.0898 189.273 33.0898 187.576V111.515H163.91V187.576C163.91 189.273 165.286 190.651 166.988 190.651H187.766C189.468 190.651 190.844 189.273 190.844 187.576V70.7255C190.844 69.7139 190.348 68.7668 189.511 68.1948ZM33.0898 105.365V99.2154H69.2578C70.96 99.2154 72.3359 97.8378 72.3359 96.1404C72.3359 94.443 70.96 93.0654 69.2578 93.0654H33.0898V86.1005H163.91V93.0654H81.5703C79.8681 93.0654 78.4922 94.443 78.4922 96.1404C78.4922 97.8378 79.8681 99.2154 81.5703 99.2154H163.91V105.365H33.0898ZM184.688 184.501H170.066V83.0255C170.066 81.3281 168.69 79.9505 166.988 79.9505H30.0117C28.3095 79.9505 26.9336 81.3281 26.9336 83.0255V184.501H12.3125V72.3399L98.5 12.9617L184.688 72.3399V184.501Z" fill="#0C2437"/>
<path d="M80.8008 122.923H50.0195C48.3173 122.923 46.9414 124.301 46.9414 125.998V156.748V187.498C46.9414 189.196 48.3173 190.573 50.0195 190.573H80.8008H111.582C113.284 190.573 114.66 189.196 114.66 187.498V156.748C114.66 155.051 113.284 153.673 111.582 153.673H83.8789V125.998C83.8789 124.298 82.503 122.923 80.8008 122.923ZM53.0977 129.073H62.332V133.975C62.332 135.672 63.708 137.05 65.4102 137.05C67.1124 137.05 68.4883 135.672 68.4883 133.975V129.073H77.7227V153.673H53.0977V129.073ZM53.0977 159.823H62.332V164.725C62.332 166.422 63.708 167.8 65.4102 167.8C67.1124 167.8 68.4883 166.422 68.4883 164.725V159.823H77.7227V184.423H53.0977V159.823ZM108.504 184.423H83.8789V159.823H93.1133V164.725C93.1133 166.422 94.4892 167.8 96.1914 167.8C97.8936 167.8 99.2695 166.422 99.2695 164.725V159.823H108.504V184.423Z" fill="#00E09E"/>
<path d="M0.99 248.505V252.925H1.84V248.505H2.84V247.755H1.84V247.035C1.84 246.808 1.89667 246.655 2.01 246.575C2.12333 246.495 2.28333 246.455 2.49 246.455C2.56333 246.455 2.64333 246.461 2.73 246.475C2.81667 246.481 2.89667 246.498 2.97 246.525V245.785C2.89 245.758 2.79667 245.738 2.69 245.725C2.59 245.711 2.5 245.705 2.42 245.705C1.95333 245.705 1.59667 245.815 1.35 246.035C1.11 246.248 0.99 246.565 0.99 246.985V247.755H0.12V248.505H0.99ZM3.56898 247.755V252.925H4.41898V250.625C4.41898 250.291 4.45232 249.998 4.51898 249.745C4.58565 249.485 4.69232 249.265 4.83898 249.085C4.98565 248.905 5.17898 248.768 5.41898 248.675C5.65898 248.581 5.94898 248.535 6.28898 248.535V247.635C5.82898 247.621 5.44898 247.715 5.14898 247.915C4.84898 248.115 4.59565 248.425 4.38898 248.845H4.36898V247.755H3.56898ZM7.37328 250.345C7.37328 250.031 7.41328 249.755 7.49328 249.515C7.57995 249.268 7.69661 249.061 7.84328 248.895C7.98995 248.728 8.15995 248.601 8.35328 248.515C8.55328 248.428 8.76328 248.385 8.98328 248.385C9.20328 248.385 9.40995 248.428 9.60328 248.515C9.80328 248.601 9.97661 248.728 10.1233 248.895C10.2699 249.061 10.3833 249.268 10.4633 249.515C10.5499 249.755 10.5933 250.031 10.5933 250.345C10.5933 250.658 10.5499 250.938 10.4633 251.185C10.3833 251.425 10.2699 251.628 10.1233 251.795C9.97661 251.955 9.80328 252.078 9.60328 252.165C9.40995 252.251 9.20328 252.295 8.98328 252.295C8.76328 252.295 8.55328 252.251 8.35328 252.165C8.15995 252.078 7.98995 251.955 7.84328 251.795C7.69661 251.628 7.57995 251.425 7.49328 251.185C7.41328 250.938 7.37328 250.658 7.37328 250.345ZM6.47328 250.345C6.47328 250.725 6.52661 251.078 6.63328 251.405C6.73995 251.731 6.89995 252.018 7.11328 252.265C7.32661 252.505 7.58995 252.695 7.90328 252.835C8.21661 252.968 8.57661 253.035 8.98328 253.035C9.39661 253.035 9.75661 252.968 10.0633 252.835C10.3766 252.695 10.6399 252.505 10.8533 252.265C11.0666 252.018 11.2266 251.731 11.3333 251.405C11.4399 251.078 11.4933 250.725 11.4933 250.345C11.4933 249.965 11.4399 249.611 11.3333 249.285C11.2266 248.951 11.0666 248.665 10.8533 248.425C10.6399 248.178 10.3766 247.985 10.0633 247.845C9.75661 247.705 9.39661 247.635 8.98328 247.635C8.57661 247.635 8.21661 247.705 7.90328 247.845C7.58995 247.985 7.32661 248.178 7.11328 248.425C6.89995 248.665 6.73995 248.951 6.63328 249.285C6.52661 249.611 6.47328 249.965 6.47328 250.345ZM12.4955 247.755V252.925H13.3455V249.705C13.3455 249.605 13.3688 249.481 13.4155 249.335C13.4688 249.181 13.5488 249.035 13.6555 248.895C13.7688 248.755 13.9121 248.635 14.0855 248.535C14.2655 248.435 14.4788 248.385 14.7255 248.385C14.9188 248.385 15.0755 248.415 15.1955 248.475C15.3221 248.528 15.4221 248.608 15.4955 248.715C15.5688 248.815 15.6188 248.935 15.6455 249.075C15.6788 249.215 15.6955 249.368 15.6955 249.535V252.925H16.5455V249.705C16.5455 249.305 16.6655 248.985 16.9055 248.745C17.1455 248.505 17.4755 248.385 17.8955 248.385C18.1021 248.385 18.2688 248.415 18.3955 248.475C18.5288 248.535 18.6321 248.618 18.7055 248.725C18.7788 248.825 18.8288 248.945 18.8555 249.085C18.8821 249.225 18.8955 249.375 18.8955 249.535V252.925H19.7455V249.135C19.7455 248.868 19.7021 248.641 19.6155 248.455C19.5355 248.261 19.4188 248.105 19.2655 247.985C19.1188 247.865 18.9388 247.778 18.7255 247.725C18.5188 247.665 18.2855 247.635 18.0255 247.635C17.6855 247.635 17.3721 247.711 17.0855 247.865C16.8055 248.018 16.5788 248.235 16.4055 248.515C16.2988 248.195 16.1155 247.968 15.8555 247.835C15.5955 247.701 15.3055 247.635 14.9855 247.635C14.2588 247.635 13.7021 247.928 13.3155 248.515H13.2955V247.755H12.4955ZM24.9841 247.755V246.205H24.1341V247.755H23.2541V248.505H24.1341V251.795C24.1341 252.035 24.1574 252.228 24.2041 252.375C24.2507 252.521 24.3207 252.635 24.4141 252.715C24.5141 252.795 24.6407 252.851 24.7941 252.885C24.9541 252.911 25.1441 252.925 25.3641 252.925H26.0141V252.175H25.6241C25.4907 252.175 25.3807 252.171 25.2941 252.165C25.2141 252.151 25.1507 252.128 25.1041 252.095C25.0574 252.061 25.0241 252.015 25.0041 251.955C24.9907 251.895 24.9841 251.815 24.9841 251.715V248.505H26.0141V247.755H24.9841ZM26.9584 245.785V252.925H27.8084V250.005C27.8084 249.771 27.8384 249.558 27.8984 249.365C27.965 249.165 28.0617 248.991 28.1884 248.845C28.315 248.698 28.4717 248.585 28.6584 248.505C28.8517 248.425 29.0784 248.385 29.3384 248.385C29.665 248.385 29.9217 248.478 30.1084 248.665C30.295 248.851 30.3884 249.105 30.3884 249.425V252.925H31.2384V249.525C31.2384 249.245 31.2084 248.991 31.1484 248.765C31.095 248.531 30.9984 248.331 30.8584 248.165C30.7184 247.998 30.535 247.868 30.3084 247.775C30.0817 247.681 29.7984 247.635 29.4584 247.635C29.305 247.635 29.145 247.651 28.9784 247.685C28.8184 247.718 28.6617 247.771 28.5084 247.845C28.3617 247.911 28.2284 248.001 28.1084 248.115C27.9884 248.221 27.895 248.355 27.8284 248.515H27.8084V245.785H26.9584ZM36.105 249.845H33.135C33.1483 249.645 33.1917 249.458 33.265 249.285C33.3383 249.105 33.4383 248.948 33.565 248.815C33.6917 248.681 33.8417 248.578 34.015 248.505C34.195 248.425 34.395 248.385 34.615 248.385C34.8283 248.385 35.0217 248.425 35.195 248.505C35.375 248.578 35.5283 248.681 35.655 248.815C35.7883 248.941 35.8917 249.095 35.965 249.275C36.045 249.455 36.0917 249.645 36.105 249.845ZM36.925 251.285H36.085C36.0117 251.625 35.8583 251.878 35.625 252.045C35.3983 252.211 35.105 252.295 34.745 252.295C34.465 252.295 34.2217 252.248 34.015 252.155C33.8083 252.061 33.6383 251.938 33.505 251.785C33.3717 251.625 33.275 251.445 33.215 251.245C33.155 251.038 33.1283 250.821 33.135 250.595H37.005C37.0183 250.281 36.9883 249.951 36.915 249.605C36.8483 249.258 36.7217 248.938 36.535 248.645C36.355 248.351 36.1117 248.111 35.805 247.925C35.505 247.731 35.125 247.635 34.665 247.635C34.3117 247.635 33.985 247.701 33.685 247.835C33.3917 247.968 33.135 248.155 32.915 248.395C32.7017 248.635 32.535 248.918 32.415 249.245C32.295 249.571 32.235 249.931 32.235 250.325C32.2483 250.718 32.305 251.081 32.405 251.415C32.5117 251.748 32.6683 252.035 32.875 252.275C33.0817 252.515 33.335 252.701 33.635 252.835C33.9417 252.968 34.3017 253.035 34.715 253.035C35.3017 253.035 35.7883 252.888 36.175 252.595C36.5617 252.301 36.8117 251.865 36.925 251.285ZM40.7993 245.785V252.925H41.6993V247.195H41.7193L45.4493 252.925H46.4893V245.785H45.5893V251.575H45.5693L41.8093 245.785H40.7993ZM48.5061 250.345C48.5061 250.031 48.5461 249.755 48.6261 249.515C48.7128 249.268 48.8294 249.061 48.9761 248.895C49.1228 248.728 49.2928 248.601 49.4861 248.515C49.6861 248.428 49.8961 248.385 50.1161 248.385C50.3361 248.385 50.5428 248.428 50.7361 248.515C50.9361 248.601 51.1094 248.728 51.2561 248.895C51.4028 249.061 51.5161 249.268 51.5961 249.515C51.6828 249.755 51.7261 250.031 51.7261 250.345C51.7261 250.658 51.6828 250.938 51.5961 251.185C51.5161 251.425 51.4028 251.628 51.2561 251.795C51.1094 251.955 50.9361 252.078 50.7361 252.165C50.5428 252.251 50.3361 252.295 50.1161 252.295C49.8961 252.295 49.6861 252.251 49.4861 252.165C49.2928 252.078 49.1228 251.955 48.9761 251.795C48.8294 251.628 48.7128 251.425 48.6261 251.185C48.5461 250.938 48.5061 250.658 48.5061 250.345ZM47.6061 250.345C47.6061 250.725 47.6594 251.078 47.7661 251.405C47.8728 251.731 48.0328 252.018 48.2461 252.265C48.4594 252.505 48.7228 252.695 49.0361 252.835C49.3494 252.968 49.7094 253.035 50.1161 253.035C50.5294 253.035 50.8894 252.968 51.1961 252.835C51.5094 252.695 51.7728 252.505 51.9861 252.265C52.1994 252.018 52.3594 251.731 52.4661 251.405C52.5728 251.078 52.6261 250.725 52.6261 250.345C52.6261 249.965 52.5728 249.611 52.4661 249.285C52.3594 248.951 52.1994 248.665 51.9861 248.425C51.7728 248.178 51.5094 247.985 51.1961 247.845C50.8894 247.705 50.5294 247.635 50.1161 247.635C49.7094 247.635 49.3494 247.705 49.0361 247.845C48.7228 247.985 48.4594 248.178 48.2461 248.425C48.0328 248.665 47.8728 248.951 47.7661 249.285C47.6594 249.611 47.6061 249.965 47.6061 250.345ZM57.9083 252.925V247.755H57.0583V250.675C57.0583 250.908 57.0249 251.125 56.9583 251.325C56.8983 251.518 56.8049 251.688 56.6783 251.835C56.5516 251.981 56.3916 252.095 56.1983 252.175C56.0116 252.255 55.7883 252.295 55.5283 252.295C55.2016 252.295 54.9449 252.201 54.7583 252.015C54.5716 251.828 54.4783 251.575 54.4783 251.255V247.755H53.6283V251.155C53.6283 251.435 53.6549 251.691 53.7083 251.925C53.7683 252.151 53.8683 252.348 54.0083 252.515C54.1483 252.681 54.3316 252.811 54.5583 252.905C54.7849 252.991 55.0683 253.035 55.4083 253.035C55.7883 253.035 56.1183 252.961 56.3983 252.815C56.6783 252.661 56.9083 252.425 57.0883 252.105H57.1083V252.925H57.9083ZM59.1849 247.755V252.925H60.0349V250.005C60.0349 249.771 60.0649 249.558 60.1249 249.365C60.1916 249.165 60.2883 248.991 60.4149 248.845C60.5416 248.698 60.6983 248.585 60.8849 248.505C61.0783 248.425 61.3049 248.385 61.5649 248.385C61.8916 248.385 62.1483 248.478 62.3349 248.665C62.5216 248.851 62.6149 249.105 62.6149 249.425V252.925H63.4649V249.525C63.4649 249.245 63.4349 248.991 63.3749 248.765C63.3216 248.531 63.2249 248.331 63.0849 248.165C62.9449 247.998 62.7616 247.868 62.5349 247.775C62.3083 247.681 62.0249 247.635 61.6849 247.635C60.9183 247.635 60.3583 247.948 60.0049 248.575H59.9849V247.755H59.1849ZM68.6148 249.205V246.585H70.4748C71.0148 246.585 71.4081 246.698 71.6548 246.925C71.9081 247.145 72.0348 247.468 72.0348 247.895C72.0348 248.321 71.9081 248.648 71.6548 248.875C71.4081 249.101 71.0148 249.211 70.4748 249.205H68.6148ZM67.6648 245.785V252.925H68.6148V250.005H70.7948C71.5148 250.011 72.0581 249.828 72.4248 249.455C72.7981 249.081 72.9848 248.561 72.9848 247.895C72.9848 247.228 72.7981 246.711 72.4248 246.345C72.0581 245.971 71.5148 245.785 70.7948 245.785H67.6648ZM73.9791 247.755V252.925H74.8291V250.625C74.8291 250.291 74.8625 249.998 74.9291 249.745C74.9958 249.485 75.1025 249.265 75.2491 249.085C75.3958 248.905 75.5891 248.768 75.8291 248.675C76.0691 248.581 76.3591 248.535 76.6991 248.535V247.635C76.2391 247.621 75.8591 247.715 75.5591 247.915C75.2591 248.115 75.0058 248.425 74.7991 248.845H74.7791V247.755H73.9791ZM77.7834 250.345C77.7834 250.031 77.8234 249.755 77.9034 249.515C77.9901 249.268 78.1068 249.061 78.2534 248.895C78.4001 248.728 78.5701 248.601 78.7634 248.515C78.9634 248.428 79.1734 248.385 79.3934 248.385C79.6134 248.385 79.8201 248.428 80.0134 248.515C80.2134 248.601 80.3868 248.728 80.5334 248.895C80.6801 249.061 80.7934 249.268 80.8734 249.515C80.9601 249.755 81.0034 250.031 81.0034 250.345C81.0034 250.658 80.9601 250.938 80.8734 251.185C80.7934 251.425 80.6801 251.628 80.5334 251.795C80.3868 251.955 80.2134 252.078 80.0134 252.165C79.8201 252.251 79.6134 252.295 79.3934 252.295C79.1734 252.295 78.9634 252.251 78.7634 252.165C78.5701 252.078 78.4001 251.955 78.2534 251.795C78.1068 251.628 77.9901 251.425 77.9034 251.185C77.8234 250.938 77.7834 250.658 77.7834 250.345ZM76.8834 250.345C76.8834 250.725 76.9368 251.078 77.0434 251.405C77.1501 251.731 77.3101 252.018 77.5234 252.265C77.7368 252.505 78.0001 252.695 78.3134 252.835C78.6268 252.968 78.9868 253.035 79.3934 253.035C79.8068 253.035 80.1668 252.968 80.4734 252.835C80.7868 252.695 81.0501 252.505 81.2634 252.265C81.4768 252.018 81.6368 251.731 81.7434 251.405C81.8501 251.078 81.9034 250.725 81.9034 250.345C81.9034 249.965 81.8501 249.611 81.7434 249.285C81.6368 248.951 81.4768 248.665 81.2634 248.425C81.0501 248.178 80.7868 247.985 80.4734 247.845C80.1668 247.705 79.8068 247.635 79.3934 247.635C78.9868 247.635 78.6268 247.705 78.3134 247.845C78.0001 247.985 77.7368 248.178 77.5234 248.425C77.3101 248.665 77.1501 248.951 77.0434 249.285C76.9368 249.611 76.8834 249.965 76.8834 250.345ZM83.8056 246.825V245.785H82.9556V246.825H83.8056ZM83.8056 253.575V247.755H82.9556V253.435C82.9556 253.701 82.9223 253.885 82.8556 253.985C82.789 254.091 82.6623 254.145 82.4756 254.145H82.2956C82.269 254.145 82.2456 254.141 82.2256 254.135C82.199 254.135 82.169 254.131 82.1356 254.125V254.855C82.269 254.881 82.4123 254.895 82.5656 254.895C82.9456 254.895 83.2456 254.788 83.4656 254.575C83.6923 254.368 83.8056 254.035 83.8056 253.575ZM88.7124 249.845H85.7424C85.7558 249.645 85.7991 249.458 85.8724 249.285C85.9458 249.105 86.0458 248.948 86.1724 248.815C86.2991 248.681 86.4491 248.578 86.6224 248.505C86.8024 248.425 87.0024 248.385 87.2224 248.385C87.4358 248.385 87.6291 248.425 87.8024 248.505C87.9824 248.578 88.1358 248.681 88.2624 248.815C88.3958 248.941 88.4991 249.095 88.5724 249.275C88.6524 249.455 88.6991 249.645 88.7124 249.845ZM89.5324 251.285H88.6924C88.6191 251.625 88.4658 251.878 88.2324 252.045C88.0058 252.211 87.7124 252.295 87.3524 252.295C87.0724 252.295 86.8291 252.248 86.6224 252.155C86.4158 252.061 86.2458 251.938 86.1124 251.785C85.9791 251.625 85.8824 251.445 85.8224 251.245C85.7624 251.038 85.7358 250.821 85.7424 250.595H89.6124C89.6258 250.281 89.5958 249.951 89.5224 249.605C89.4558 249.258 89.3291 248.938 89.1424 248.645C88.9624 248.351 88.7191 248.111 88.4124 247.925C88.1124 247.731 87.7324 247.635 87.2724 247.635C86.9191 247.635 86.5924 247.701 86.2924 247.835C85.9991 247.968 85.7424 248.155 85.5224 248.395C85.3091 248.635 85.1424 248.918 85.0224 249.245C84.9024 249.571 84.8424 249.931 84.8424 250.325C84.8558 250.718 84.9124 251.081 85.0124 251.415C85.1191 251.748 85.2758 252.035 85.4824 252.275C85.6891 252.515 85.9424 252.701 86.2424 252.835C86.5491 252.968 86.9091 253.035 87.3224 253.035C87.9091 253.035 88.3958 252.888 88.7824 252.595C89.1691 252.301 89.4191 251.865 89.5324 251.285ZM94.0035 249.415H94.8835C94.8502 249.108 94.7702 248.845 94.6435 248.625C94.5168 248.398 94.3535 248.211 94.1535 248.065C93.9602 247.918 93.7335 247.811 93.4735 247.745C93.2202 247.671 92.9468 247.635 92.6535 247.635C92.2468 247.635 91.8902 247.708 91.5835 247.855C91.2768 247.995 91.0202 248.191 90.8135 248.445C90.6135 248.691 90.4635 248.985 90.3635 249.325C90.2635 249.658 90.2135 250.018 90.2135 250.405C90.2135 250.791 90.2635 251.148 90.3635 251.475C90.4702 251.795 90.6235 252.071 90.8235 252.305C91.0302 252.538 91.2835 252.718 91.5835 252.845C91.8902 252.971 92.2402 253.035 92.6335 253.035C93.2935 253.035 93.8135 252.861 94.1935 252.515C94.5802 252.168 94.8202 251.675 94.9135 251.035H94.0435C93.9902 251.435 93.8435 251.745 93.6035 251.965C93.3702 252.185 93.0435 252.295 92.6235 252.295C92.3568 252.295 92.1268 252.241 91.9335 252.135C91.7402 252.028 91.5835 251.888 91.4635 251.715C91.3435 251.535 91.2535 251.331 91.1935 251.105C91.1402 250.878 91.1135 250.645 91.1135 250.405C91.1135 250.145 91.1402 249.895 91.1935 249.655C91.2468 249.408 91.3335 249.191 91.4535 249.005C91.5802 248.818 91.7468 248.668 91.9535 248.555C92.1602 248.441 92.4168 248.385 92.7235 248.385C93.0835 248.385 93.3702 248.475 93.5835 248.655C93.7968 248.835 93.9368 249.088 94.0035 249.415ZM97.0446 247.755V246.205H96.1946V247.755H95.3146V248.505H96.1946V251.795C96.1946 252.035 96.2179 252.228 96.2646 252.375C96.3113 252.521 96.3813 252.635 96.4746 252.715C96.5746 252.795 96.7013 252.851 96.8546 252.885C97.0146 252.911 97.2046 252.925 97.4246 252.925H98.0746V252.175H97.6846C97.5513 252.175 97.4413 252.171 97.3546 252.165C97.2746 252.151 97.2113 252.128 97.1646 252.095C97.1179 252.061 97.0846 252.015 97.0646 251.955C97.0513 251.895 97.0446 251.815 97.0446 251.715V248.505H98.0746V247.755H97.0446Z" fill="black"/>
</g>
<defs>
<clipPath id="clip0">
<rect width="197" height="246" fill="white"/>
</clipPath>
</defs>
</svg>
