<svg width="188" height="189" viewBox="0 0 188 189" fill="none" xmlns="http://www.w3.org/2000/svg">
<path d="M99.3395 99.5213C98.0506 100.812 96.3025 101.538 94.4798 101.538C92.6571 101.538 90.909 100.812 89.6201 99.5213C88.9752 98.8902 88.4631 98.1362 88.1138 97.3036C87.7646 96.4711 87.5854 95.5769 87.5868 94.6739C87.5872 93.7681 87.7672 92.8714 88.1162 92.0358C88.4653 91.2002 88.9765 90.4423 89.6201 89.8061L100.905 78.5022C98.7445 77.5833 96.4205 77.1122 94.0731 77.1173C90.2957 77.1063 86.6142 78.3083 83.5687 80.5467C80.5232 82.7852 78.2741 85.9423 77.1512 89.555C76.0283 93.1677 76.0908 97.0458 77.3295 100.62C78.5682 104.195 80.9179 107.278 84.034 109.417C87.15 111.555 90.8683 112.638 94.6434 112.505C98.4185 112.372 102.052 111.03 105.01 108.677C107.968 106.324 110.096 103.084 111.081 99.4308C112.065 95.778 111.856 91.9051 110.482 88.3804L99.3395 99.5213Z" fill="#0B2C48"/>
<path d="M123.255 73.7018L122.491 74.4664L123.092 75.3645C127.944 82.62 129.921 91.4269 128.638 100.065C127.355 108.703 122.903 116.552 116.153 122.077C109.403 127.603 100.839 130.41 92.134 129.949C83.4292 129.489 75.2078 125.795 69.0758 119.588C62.9436 113.381 59.3413 105.107 58.973 96.3816C58.6046 87.6561 61.4968 79.1067 67.084 72.4032C72.6711 65.6998 80.5519 61.3237 89.1869 60.1291C97.8218 58.9344 106.591 61.0069 113.783 65.942L114.686 66.5619L115.46 65.7866L119.649 61.5909L120.741 60.4969L119.488 59.5924C110.668 53.2277 99.7803 50.4182 88.9875 51.7223C78.1947 53.0263 68.2868 58.3483 61.231 66.6309C54.1752 74.9133 50.4874 85.5505 50.8995 96.4299C51.3116 107.309 55.7933 117.636 63.4554 125.359C71.1176 133.083 81.3997 137.638 92.2601 138.119C103.12 138.6 113.764 134.972 122.077 127.957C130.39 120.941 135.765 111.051 137.134 100.25C138.504 89.4497 135.768 78.528 129.47 69.654L128.566 68.3812L127.464 69.4858L123.255 73.7018Z" fill="#0C2437" stroke="#0C2437" stroke-width="2.63415"/>
<path d="M185.126 3.85574C184.58 3.32809 183.851 3.0332 183.092 3.0332C182.334 3.0332 181.605 3.32809 181.059 3.85574L175.569 9.37528L173.8 7.62369C172.636 6.46966 171.206 5.61966 169.637 5.14835C168.068 4.67704 166.408 4.59884 164.802 4.92062C163.195 5.24239 161.693 5.9543 160.425 6.9938C159.158 8.03331 158.165 9.36862 157.533 10.8825L150.132 28.8057C149.712 29.7693 149.495 30.8094 149.495 31.8608C149.495 32.9121 149.712 33.9522 150.132 34.9158L92.4667 92.5756C92.0635 92.9887 91.7892 93.5104 91.6772 94.077C91.5653 94.6437 91.6205 95.2307 91.8361 95.7665C92.0518 96.3022 92.4186 96.7634 92.8916 97.0938C93.3647 97.4241 93.9236 97.6093 94.5 97.6267C94.88 97.623 95.2554 97.5436 95.6045 97.3933C95.9535 97.2429 96.2693 97.0246 96.5333 96.7509L154.199 39.0097C155.161 39.4278 156.199 39.6436 157.249 39.6436C158.298 39.6436 159.336 39.4278 160.299 39.0097L178.192 31.6163C179.703 30.9836 181.036 29.9889 182.074 28.7195C183.112 27.45 183.823 25.9448 184.144 24.3359C184.465 22.7271 184.387 21.0638 183.917 19.4922C183.446 17.9206 182.597 16.4888 181.445 15.3225L179.697 13.5709L185.207 8.0514C185.478 7.77148 185.692 7.44046 185.835 7.07747C185.978 6.71448 186.047 6.32671 186.04 5.93659C186.032 5.54646 185.948 5.1617 185.791 4.80454C185.634 4.44738 185.408 4.1249 185.126 3.85574Z" fill="#ED4D66"/>
<path d="M131.188 48.3658L132.122 49.1187L132.958 48.2595L137.025 44.0843L138.027 43.056L136.916 42.1464C123.418 31.0906 106.198 25.6478 88.8087 26.9422C71.4199 28.2366 55.1916 36.1693 43.4736 49.1018C31.7557 62.0344 25.4427 78.9795 25.8373 96.4389C26.2318 113.898 33.3038 130.54 45.5939 142.928C57.8841 155.317 74.4543 162.506 91.8837 163.011C109.313 163.516 126.271 157.298 139.255 145.642C152.24 133.986 160.26 117.781 161.661 100.374C163.063 82.9661 157.738 65.6839 146.786 52.0947L145.863 50.9494L144.826 51.993L140.658 56.1886L139.836 57.0154L140.557 57.9313C148.875 68.5037 153.365 81.5908 153.294 95.0522C153.222 108.513 148.592 121.552 140.162 132.035C131.732 142.518 120.001 149.825 106.887 152.762C93.7735 155.698 80.0529 154.091 67.9694 148.202C55.8858 142.314 46.1542 132.492 40.3665 120.343C34.5788 108.194 33.0779 94.4373 36.1093 81.3227C39.1407 68.2082 46.5248 56.5126 57.0536 48.1483C67.5824 39.7841 80.6326 35.2462 94.07 35.2764L94.074 35.2764C107.574 35.2661 120.672 39.8852 131.188 48.3658Z" fill="#0C2437" stroke="#0C2437" stroke-width="2.63415"/>
<path d="M161.502 41.3794H158.885L160.515 43.4993C173.542 60.4425 179.637 81.7208 177.558 103.006C175.479 124.29 165.384 143.982 149.326 158.075C133.268 172.168 112.454 179.604 91.118 178.871C69.7817 178.138 49.5251 169.291 34.4689 154.129C19.4127 138.967 10.688 118.628 10.0703 97.2509C9.45248 75.8735 16.9881 55.0636 31.1435 39.0543C45.2989 23.0451 65.0108 13.0391 86.269 11.071C107.527 9.10292 128.736 15.3205 145.581 28.4595L147.708 30.1187V27.52L149.885 22.2628L150.275 21.32L149.46 20.7064C130.98 6.80272 107.966 0.346873 84.9641 2.61477C61.9624 4.88266 40.6468 15.7093 25.2282 32.955C9.80968 50.2007 1.40938 72.6112 1.68633 95.7592C1.95818 118.482 10.5719 140.293 25.8586 157.045L3.47658 179.484C3.47531 179.485 3.47405 179.486 3.47278 179.488C3.06539 179.892 2.74198 180.372 2.52107 180.902C2.29948 181.433 2.1854 182.003 2.1854 182.579C2.1854 183.155 2.29948 183.725 2.52107 184.256C2.74215 184.786 3.06588 185.267 3.4737 185.671C4.29215 186.489 5.40137 186.948 6.55829 186.948C7.71628 186.948 8.82648 186.488 9.64514 185.669L9.64571 185.668L31.9704 163.306C48.9257 178.783 71.0513 187.378 94.0221 187.378C116.994 187.378 139.12 178.783 156.076 163.305L178.481 185.67L178.482 185.671C179.304 186.49 180.417 186.95 181.577 186.95C182.738 186.95 183.851 186.49 184.673 185.671L184.682 185.662C185.491 184.84 185.944 183.732 185.944 182.579C185.944 181.426 185.491 180.318 184.682 179.496L184.675 179.489L162.329 157.126C176.641 141.463 185.133 121.325 186.349 100.102C187.59 78.454 181.182 57.0591 168.248 39.67L167.637 38.8476L166.689 39.2386L161.502 41.3794Z" fill="#0C2437" stroke="#0C2437" stroke-width="2.63415"/>
</svg>
