<svg width="610" height="900" viewBox="0 0 610 900" fill="none" xmlns="http://www.w3.org/2000/svg">
<path d="M609.461 778.597C610 778.058 610 776.439 609.461 775.899C608.921 775.36 608.382 775.36 607.843 775.36C607.303 775.36 606.764 775.36 606.225 775.899L581.954 800.18C581.415 800.719 581.415 802.338 581.954 802.878C582.494 803.417 583.033 803.417 583.572 803.417C584.112 803.417 584.651 803.417 585.19 802.878L609.461 778.597ZM609.461 681.475C610 680.935 610 679.317 609.461 678.777C608.921 678.237 608.382 678.237 607.843 678.237C607.303 678.237 606.764 678.237 606.225 678.777L581.954 703.058C581.415 703.597 581.415 705.216 581.954 705.755C582.494 706.295 583.033 706.295 583.572 706.295C584.112 706.295 584.651 706.295 585.19 705.755L609.461 681.475ZM609.461 584.353C610 583.813 610 582.194 609.461 581.655C608.921 581.115 608.382 581.115 607.843 581.115C607.303 581.115 606.764 581.115 606.225 581.655L581.954 605.935C581.415 606.475 581.415 608.094 581.954 608.633C582.494 609.173 583.033 609.173 583.572 609.173C584.112 609.173 584.651 609.173 585.19 608.633L609.461 584.353ZM609.461 487.23C610 486.691 610 485.072 609.461 484.532C608.921 483.993 608.382 483.993 608.382 483.993C607.843 483.993 607.303 483.993 607.303 484.532L583.033 508.813C582.493 509.353 582.493 510.971 583.033 511.511C583.572 512.05 584.112 512.05 584.651 512.05C585.19 512.05 585.73 512.05 586.269 511.511L609.461 487.23ZM609.461 391.187C610 390.647 610 389.029 609.461 388.489C608.921 387.95 608.382 387.95 607.843 387.95C607.303 387.95 606.764 387.95 606.225 388.489L581.954 412.77C581.415 413.309 581.415 414.928 581.954 415.468C582.494 416.007 583.033 416.007 583.572 416.007C584.112 416.007 584.651 416.007 585.19 415.468L609.461 391.187ZM609.461 294.604C610 294.065 610 292.446 609.461 291.906C608.921 291.367 608.382 291.367 607.843 291.367C607.303 291.367 606.764 291.367 606.225 291.906L581.954 316.187C581.415 316.727 581.415 318.345 581.954 318.885C582.494 319.424 583.033 319.424 583.572 319.424C584.112 319.424 584.651 319.424 585.19 318.885L609.461 294.604ZM609.461 197.482C610 196.942 610 195.324 609.461 194.784C608.921 194.245 608.382 194.245 607.843 194.245C607.303 194.245 606.764 194.245 606.225 194.784L581.954 219.065C581.415 219.604 581.415 221.223 581.954 221.763C582.494 222.302 583.033 222.302 583.572 222.302C584.112 222.302 584.651 222.302 585.19 221.763L609.461 197.482ZM609.461 100.36C610 99.8201 610 98.2014 609.461 97.6619C608.921 97.1223 608.382 97.1223 607.843 97.1223C607.303 97.1223 606.764 97.1223 606.225 97.6619L581.954 121.942C581.415 122.482 581.415 124.101 581.954 124.64C582.494 125.18 583.033 125.18 583.572 125.18C584.112 125.18 584.651 125.18 585.19 124.64L609.461 100.36ZM609.461 3.23741C610 2.69784 610 1.07914 609.461 0.539568C608.921 0 608.382 0 607.843 0C607.303 0 606.764 0 606.764 0.539568L582.493 24.8201C581.954 25.3597 581.954 26.9784 582.493 27.518C583.033 28.0576 583.572 28.0576 584.112 28.0576C584.651 28.0576 585.19 28.0576 585.73 27.518L609.461 3.23741ZM512.379 875.18C512.918 874.64 512.918 873.022 512.379 872.482C511.839 871.942 511.3 871.942 510.76 871.942C510.221 871.942 509.682 871.942 509.142 872.482L484.872 896.763C484.333 897.302 484.333 898.921 484.872 899.46C485.411 900 485.951 900 486.49 900C487.029 900 487.569 900 488.108 899.46L512.379 875.18ZM512.379 778.597C512.918 778.058 512.918 776.439 512.379 775.899C511.839 775.36 511.3 775.36 510.76 775.36C510.221 775.36 509.682 775.36 509.142 775.899L484.872 800.18C484.333 800.719 484.333 802.338 484.872 802.878C485.411 803.417 485.951 803.417 486.49 803.417C487.029 803.417 487.569 803.417 488.108 802.878L512.379 778.597ZM512.379 681.475C512.918 680.935 512.918 679.317 512.379 678.777C511.839 678.237 511.3 678.237 510.76 678.237C510.221 678.237 509.682 678.237 509.142 678.777L484.872 703.058C484.333 703.597 484.333 705.216 484.872 705.755C485.411 706.295 485.951 706.295 486.49 706.295C487.029 706.295 487.569 706.295 488.108 705.755L512.379 681.475ZM512.379 584.353C512.918 583.813 512.918 582.194 512.379 581.655C511.839 581.115 511.3 581.115 510.76 581.115C510.221 581.115 509.682 581.115 509.142 581.655L484.872 605.935C484.333 606.475 484.333 608.094 484.872 608.633C485.411 609.173 485.951 609.173 486.49 609.173C487.029 609.173 487.569 609.173 488.108 608.633L512.379 584.353ZM512.379 487.23C512.918 486.691 512.918 485.072 512.379 484.532C511.839 483.993 511.3 483.993 511.3 483.993C510.761 483.993 510.221 483.993 510.221 484.532L485.411 508.813C484.872 509.353 484.872 510.971 485.411 511.511C485.951 512.05 486.49 512.05 487.029 512.05C487.569 512.05 488.108 512.05 488.647 511.511L512.379 487.23ZM512.379 391.187C512.918 390.647 512.918 389.029 512.379 388.489C511.839 387.95 511.3 387.95 510.76 387.95C510.221 387.95 509.682 387.95 509.142 388.489L485.411 412.77C484.872 413.309 484.872 414.928 485.411 415.468C485.951 416.007 486.49 416.007 487.029 416.007C487.569 416.007 488.108 416.007 488.647 415.468L512.379 391.187ZM512.379 294.604C512.918 294.065 512.918 292.446 512.379 291.906C511.839 291.367 511.3 291.367 510.76 291.367C510.221 291.367 509.682 291.367 509.142 291.906L485.411 315.647C484.872 316.187 484.872 317.806 485.411 318.345C485.951 318.885 486.49 318.885 487.029 318.885C487.569 318.885 488.108 318.885 488.647 318.345L512.379 294.604ZM512.379 197.482C512.918 196.942 512.918 195.324 512.379 194.784C511.839 194.245 511.3 194.245 510.76 194.245C510.221 194.245 509.682 194.245 509.142 194.784L485.411 219.065C484.872 219.604 484.872 221.223 485.411 221.763C485.951 222.302 486.49 222.302 487.029 222.302C487.569 222.302 488.108 222.302 488.647 221.763L512.379 197.482ZM512.379 100.36C512.918 99.8201 512.918 98.2014 512.379 97.6619C511.839 97.1223 511.3 97.1223 510.76 97.1223C510.221 97.1223 509.682 97.1223 509.142 97.6619L485.411 121.942C484.872 122.482 484.872 124.101 485.411 124.64C485.951 125.18 486.49 125.18 487.029 125.18C487.569 125.18 488.108 125.18 488.647 124.64L512.379 100.36ZM512.379 3.23741C512.918 2.69784 512.918 1.07914 512.379 0.539568C511.839 0 511.3 0 511.3 0C510.761 0 510.221 0 510.221 0.539568L485.411 24.8201C484.872 25.3597 484.872 26.9784 485.411 27.518C485.951 28.0576 486.49 28.0576 487.029 28.0576C487.569 28.0576 488.108 28.0576 488.647 27.518L512.379 3.23741ZM415.296 875.18C415.836 874.64 415.836 873.022 415.296 872.482C414.757 871.942 414.218 871.942 413.678 871.942C413.139 871.942 412.6 871.942 412.06 872.482L387.79 896.763C387.25 897.302 387.25 898.921 387.79 899.46C388.329 900 388.868 900 389.408 900C389.947 900 390.486 900 391.026 899.46L415.296 875.18ZM415.296 778.597C415.836 778.058 415.836 776.439 415.296 775.899C414.757 775.36 414.218 775.36 413.678 775.36C413.139 775.36 412.6 775.36 412.06 775.899L387.79 800.18C387.25 800.719 387.25 802.338 387.79 802.878C388.329 803.417 388.868 803.417 389.408 803.417C389.947 803.417 390.486 803.417 391.026 802.878L415.296 778.597ZM415.296 681.475C415.836 680.935 415.836 679.317 415.296 678.777C414.757 678.237 414.218 678.237 413.678 678.237C413.139 678.237 412.6 678.237 412.06 678.777L387.79 703.058C387.25 703.597 387.25 705.216 387.79 705.755C388.329 706.295 388.868 706.295 389.408 706.295C389.947 706.295 390.486 706.295 391.026 705.755L415.296 681.475ZM415.296 584.353C415.836 583.813 415.836 582.194 415.296 581.655C414.757 581.115 414.218 581.115 413.678 581.115C413.139 581.115 412.6 581.115 412.06 581.655L387.79 605.935C387.25 606.475 387.25 608.094 387.79 608.633C388.329 609.173 388.868 609.173 389.408 609.173C389.947 609.173 390.486 609.173 391.026 608.633L415.296 584.353ZM415.296 487.23C415.836 486.691 415.836 485.072 415.296 484.532C414.757 483.993 414.218 483.993 414.218 483.993C413.678 483.993 413.139 483.993 413.139 484.532L388.329 508.813C387.79 509.353 387.79 510.971 388.329 511.511C388.868 512.05 389.408 512.05 389.947 512.05C390.486 512.05 391.026 512.05 391.565 511.511L415.296 487.23ZM415.296 391.187C415.836 390.647 415.836 389.029 415.296 388.489C414.757 387.95 414.218 387.95 413.678 387.95C413.139 387.95 412.6 387.95 412.06 388.489L388.329 412.77C387.79 413.309 387.79 414.928 388.329 415.468C388.868 416.007 389.408 416.007 389.947 416.007C390.486 416.007 391.026 416.007 391.565 415.468L415.296 391.187ZM415.296 294.604C415.836 294.065 415.836 292.446 415.296 291.906C414.757 291.367 414.218 291.367 413.678 291.367C413.139 291.367 412.6 291.367 412.06 291.906L388.329 315.647C387.79 316.187 387.79 317.806 388.329 318.345C388.868 318.885 389.408 318.885 389.947 318.885C390.486 318.885 391.026 318.885 391.565 318.345L415.296 294.604ZM415.296 197.482C415.836 196.942 415.836 195.324 415.296 194.784C414.757 194.245 414.218 194.245 413.678 194.245C413.139 194.245 412.6 194.245 412.06 194.784L388.329 219.065C387.79 219.604 387.79 221.223 388.329 221.763C388.868 222.302 389.408 222.302 389.947 222.302C390.486 222.302 391.026 222.302 391.565 221.763L415.296 197.482ZM415.296 100.36C415.836 99.8201 415.836 98.2014 415.296 97.6619C415.296 97.1223 414.757 97.1223 414.218 97.1223C413.678 97.1223 413.139 97.1223 412.6 97.6619L388.329 121.942C387.79 122.482 387.79 124.101 388.329 124.64C388.868 125.18 389.408 125.18 389.947 125.18C390.486 125.18 391.026 125.18 391.565 124.64L415.296 100.36ZM415.296 3.23741C415.836 2.69784 415.836 1.07914 415.296 0.539568C415.296 0 414.757 0 414.218 0C413.678 0 413.139 0 413.139 0.539568L388.329 24.8201C387.79 25.3597 387.79 26.9784 388.329 27.518C388.868 28.0576 389.408 28.0576 389.947 28.0576C390.486 28.0576 391.026 28.0576 391.565 27.518L415.296 3.23741ZM318.753 875.18C319.293 874.64 319.293 873.022 318.753 872.482C318.214 871.942 317.675 871.942 317.135 871.942C316.596 871.942 316.057 871.942 315.517 872.482L291.247 896.763C290.708 897.302 290.708 898.921 291.247 899.46C291.786 900 292.326 900 292.865 900C293.404 900 293.944 900 294.483 899.46L318.753 875.18ZM318.753 778.597C319.293 778.058 319.293 776.439 318.753 775.899C318.214 775.36 317.675 775.36 317.135 775.36C316.596 775.36 316.057 775.36 315.517 775.899L291.247 800.18C290.708 800.719 290.708 802.338 291.247 802.878C291.786 803.417 292.326 803.417 292.865 803.417C293.404 803.417 293.944 803.417 294.483 802.878L318.753 778.597ZM318.753 681.475C319.293 680.935 319.293 679.317 318.753 678.777C318.214 678.237 317.675 678.237 317.135 678.237C316.596 678.237 316.057 678.237 315.517 678.777L291.247 703.058C290.708 703.597 290.708 705.216 291.247 705.755C291.786 706.295 292.326 706.295 292.865 706.295C293.404 706.295 293.944 706.295 294.483 705.755L318.753 681.475ZM318.753 584.353C319.293 583.813 319.293 582.194 318.753 581.655C318.214 581.115 317.675 581.115 317.135 581.115C316.596 581.115 316.057 581.115 315.517 581.655L291.247 605.935C290.708 606.475 290.708 608.094 291.247 608.633C291.786 609.173 292.326 609.173 292.865 609.173C293.404 609.173 293.944 609.173 294.483 608.633L318.753 584.353ZM318.753 487.23C319.293 486.691 319.293 485.072 318.753 484.532C318.214 483.993 317.675 483.993 317.675 483.993C317.135 483.993 316.596 483.993 316.596 484.532L291.247 508.813C290.708 509.353 290.708 510.971 291.247 511.511C291.786 512.05 292.326 512.05 292.865 512.05C293.404 512.05 293.944 512.05 294.483 511.511L318.753 487.23ZM318.753 391.187C319.293 390.647 319.293 389.029 318.753 388.489C318.214 387.95 317.675 387.95 317.135 387.95C316.596 387.95 316.057 387.95 315.517 388.489L291.247 412.77C290.708 413.309 290.708 414.928 291.247 415.468C291.786 416.007 292.326 416.007 292.865 416.007C293.404 416.007 293.944 416.007 294.483 415.468L318.753 391.187ZM318.753 294.604C319.293 294.065 319.293 292.446 318.753 291.906C318.214 291.367 317.675 291.367 317.135 291.367C316.596 291.367 316.057 291.367 315.517 291.906L291.247 315.647C290.708 316.187 290.708 317.806 291.247 318.345C291.786 318.885 292.326 318.885 292.865 318.885C293.404 318.885 293.944 318.885 294.483 318.345L318.753 294.604ZM318.753 197.482C319.293 196.942 319.293 195.324 318.753 194.784C318.214 194.245 317.675 194.245 317.135 194.245C316.596 194.245 316.057 194.245 315.517 194.784L291.247 219.065C290.708 219.604 290.708 221.223 291.247 221.763C291.786 222.302 292.326 222.302 292.865 222.302C293.404 222.302 293.944 222.302 294.483 221.763L318.753 197.482ZM318.753 100.36C319.293 99.8201 319.293 98.2014 318.753 97.6619C318.214 97.1223 317.675 97.1223 317.135 97.1223C316.596 97.1223 316.057 97.1223 315.517 97.6619L291.247 121.942C290.708 122.482 290.708 124.101 291.247 124.64C291.786 125.18 292.326 125.18 292.865 125.18C293.404 125.18 293.944 125.18 294.483 124.64L318.753 100.36ZM318.753 3.23741C319.293 2.69784 319.293 1.07914 318.753 0.539568C318.214 0 317.675 0 317.135 0C316.596 0 316.057 0 316.057 0.539568L291.247 24.8201C290.708 25.3597 290.708 26.9784 291.247 27.518C291.786 28.0576 292.326 28.0576 292.865 28.0576C293.404 28.0576 293.944 28.0576 294.483 27.518L318.753 3.23741ZM221.671 875.18C222.211 874.64 222.211 873.022 221.671 872.482C221.132 871.942 220.593 871.942 220.053 871.942C219.514 871.942 218.975 871.942 218.435 872.482L194.165 896.763C193.625 897.302 193.625 898.921 194.165 899.46C194.704 900 195.243 900 195.783 900C196.322 900 196.861 900 197.401 899.46L221.671 875.18ZM221.671 778.597C222.211 778.058 222.211 776.439 221.671 775.899C221.132 775.36 220.593 775.36 220.053 775.36C219.514 775.36 218.975 775.36 218.435 775.899L194.165 800.18C193.625 800.719 193.625 802.338 194.165 802.878C194.704 803.417 195.243 803.417 195.783 803.417C196.322 803.417 196.861 803.417 197.401 802.878L221.671 778.597ZM221.671 681.475C222.211 680.935 222.211 679.317 221.671 678.777C221.132 678.237 220.593 678.237 220.053 678.237C219.514 678.237 218.975 678.237 218.435 678.777L194.165 703.058C193.625 703.597 193.625 705.216 194.165 705.755C194.704 706.295 195.243 706.295 195.783 706.295C196.322 706.295 196.861 706.295 197.401 705.755L221.671 681.475ZM221.671 584.353C222.211 583.813 222.211 582.194 221.671 581.655C221.132 581.115 220.593 581.115 220.053 581.115C219.514 581.115 218.975 581.115 218.435 581.655L194.165 605.935C193.625 606.475 193.625 608.094 194.165 608.633C194.704 609.173 195.243 609.173 195.783 609.173C196.322 609.173 196.861 609.173 197.401 608.633L221.671 584.353ZM221.671 487.23C222.211 486.691 222.211 485.072 221.671 484.532C221.132 483.993 220.593 483.993 220.593 483.993C220.053 483.993 219.514 483.993 219.514 484.532L195.243 508.813C194.704 509.353 194.704 510.971 195.243 511.511C195.783 512.05 196.322 512.05 196.861 512.05C197.401 512.05 197.94 512.05 198.479 511.511L221.671 487.23ZM221.671 391.187C222.211 390.647 222.211 389.029 221.671 388.489C221.132 387.95 220.593 387.95 220.053 387.95C219.514 387.95 218.975 387.95 218.435 388.489L194.165 412.77C193.625 413.309 193.625 414.928 194.165 415.468C194.704 416.007 195.243 416.007 195.783 416.007C196.322 416.007 196.861 416.007 197.401 415.468L221.671 391.187ZM221.671 294.604C222.211 294.065 222.211 292.446 221.671 291.906C221.132 291.367 220.593 291.367 220.053 291.367C219.514 291.367 218.975 291.367 218.435 291.906L194.165 316.187C193.625 316.727 193.625 318.345 194.165 318.885C194.704 319.424 195.243 319.424 195.783 319.424C196.322 319.424 196.861 319.424 197.401 318.885L221.671 294.604ZM221.671 197.482C222.211 196.942 222.211 195.324 221.671 194.784C221.132 194.245 220.593 194.245 220.053 194.245C219.514 194.245 218.975 194.245 218.435 194.784L194.165 219.065C193.625 219.604 193.625 221.223 194.165 221.763C194.704 222.302 195.243 222.302 195.783 222.302C196.322 222.302 196.861 222.302 197.401 221.763L221.671 197.482ZM221.671 100.36C222.211 99.8201 222.211 98.2014 221.671 97.6619C221.132 97.1223 220.593 97.1223 220.053 97.1223C219.514 97.1223 218.975 97.1223 218.435 97.6619L194.165 121.942C193.625 122.482 193.625 124.101 194.165 124.64C194.704 125.18 195.243 125.18 195.783 125.18C196.322 125.18 196.861 125.18 197.401 124.64L221.671 100.36ZM221.671 3.23741C222.211 2.69784 222.211 1.07914 221.671 0.539568C221.132 0 220.593 0 220.053 0C219.514 0 218.975 0 218.975 0.539568L194.704 24.8201C194.165 25.3597 194.165 26.9784 194.704 27.518C195.243 28.0576 195.783 28.0576 196.322 28.0576C196.861 28.0576 197.401 28.0576 197.94 27.518L221.671 3.23741ZM124.589 875.18C125.128 874.64 125.128 873.022 124.589 872.482C124.05 871.942 123.51 871.942 122.971 871.942C122.432 871.942 121.892 871.942 121.353 872.482L97.0824 896.763C96.5431 897.302 96.5431 898.921 97.0824 899.46C97.6218 900 98.1611 900 98.7005 900C99.2398 900 99.7792 900 100.319 899.46L124.589 875.18ZM124.589 778.597C125.128 778.058 125.128 776.439 124.589 775.899C124.05 775.36 123.51 775.36 122.971 775.36C122.432 775.36 121.892 775.36 121.353 775.899L97.0824 800.18C96.5431 800.719 96.5431 802.338 97.0824 802.878C97.6218 803.417 98.1611 803.417 98.7005 803.417C99.2398 803.417 99.7792 803.417 100.319 802.878L124.589 778.597ZM124.589 681.475C125.128 680.935 125.128 679.317 124.589 678.777C124.05 678.237 123.51 678.237 122.971 678.237C122.432 678.237 121.892 678.237 121.353 678.777L97.0824 703.058C96.5431 703.597 96.5431 705.216 97.0824 705.755C97.6218 706.295 98.1611 706.295 98.7005 706.295C99.2398 706.295 99.7792 706.295 100.319 705.755L124.589 681.475ZM124.589 584.353C125.128 583.813 125.128 582.194 124.589 581.655C124.05 581.115 123.51 581.115 122.971 581.115C122.432 581.115 121.892 581.115 121.353 581.655L97.0824 605.935C96.5431 606.475 96.5431 608.094 97.0824 608.633C97.6218 609.173 98.1611 609.173 98.7005 609.173C99.2398 609.173 99.7792 609.173 100.319 608.633L124.589 584.353ZM124.589 487.23C125.128 486.691 125.128 485.072 124.589 484.532C124.05 483.993 123.51 483.993 123.51 483.993C122.971 483.993 122.432 483.993 122.432 484.532L98.1611 508.813C97.6218 509.353 97.6218 510.971 98.1611 511.511C98.7005 512.05 99.2398 512.05 99.7792 512.05C100.319 512.05 100.858 512.05 101.397 511.511L124.589 487.23ZM124.589 391.187C125.128 390.647 125.128 389.029 124.589 388.489C124.05 387.95 123.51 387.95 122.971 387.95C122.432 387.95 121.892 387.95 121.353 388.489L97.0824 412.77C96.5431 413.309 96.5431 414.928 97.0824 415.468C97.6218 416.007 98.1611 416.007 98.7005 416.007C99.2398 416.007 99.7792 416.007 100.319 415.468L124.589 391.187ZM124.589 294.604C125.128 294.065 125.128 292.446 124.589 291.906C124.05 291.367 123.51 291.367 122.971 291.367C122.432 291.367 121.892 291.367 121.353 291.906L97.0824 316.187C96.5431 316.727 96.5431 318.345 97.0824 318.885C97.6218 319.424 98.1611 319.424 98.7005 319.424C99.2398 319.424 99.7792 319.424 100.319 318.885L124.589 294.604ZM124.589 197.482C125.128 196.942 125.128 195.324 124.589 194.784C124.05 194.245 123.51 194.245 122.971 194.245C122.432 194.245 121.892 194.245 121.353 194.784L97.0824 219.065C96.5431 219.604 96.5431 221.223 97.0824 221.763C97.6218 222.302 98.1611 222.302 98.7005 222.302C99.2398 222.302 99.7792 222.302 100.319 221.763L124.589 197.482ZM124.589 100.36C125.128 99.8201 125.128 98.2014 124.589 97.6619C124.05 97.1223 123.51 97.1223 122.971 97.1223C122.432 97.1223 121.892 97.1223 121.353 97.6619L97.0824 121.942C96.5431 122.482 96.5431 124.101 97.0824 124.64C97.6218 125.18 98.1611 125.18 98.7005 125.18C99.2398 125.18 99.7792 125.18 100.319 124.64L124.589 100.36ZM124.589 3.23741C125.128 2.69784 125.128 1.07914 124.589 0.539568C124.05 0 124.05 0 123.51 0C122.971 0 122.432 0 122.432 0.539568L98.1611 24.8201C97.6218 25.3597 97.6218 26.9784 98.1611 27.518C98.7005 28.0576 99.2398 28.0576 99.7792 28.0576C100.319 28.0576 100.858 28.0576 101.397 27.518L124.589 3.23741ZM27.5068 875.18C28.0462 874.64 28.0462 873.022 27.5068 872.482C26.9675 871.942 26.4281 871.942 25.8888 871.942C25.3495 871.942 24.8101 871.942 24.2708 872.482L0.000212371 896.763C-0.539133 897.302 -0.539133 898.921 0.000212371 899.46C0.539558 900 1.0789 900 1.61825 900C2.15759 900 2.69694 900 3.23629 899.46L27.5068 875.18ZM27.5068 778.597C28.0462 778.058 28.0462 776.439 27.5068 775.899C26.9675 775.36 26.4281 775.36 25.8888 775.36C25.3495 775.36 24.8101 775.36 24.2708 775.899L0.000212371 800.18C-0.539133 800.719 -0.539133 802.338 0.000212371 802.878C0.539558 803.417 1.0789 803.417 1.61825 803.417C2.15759 803.417 2.69694 803.417 3.23629 802.878L27.5068 778.597ZM27.5068 681.475C28.0462 680.935 28.0462 679.317 27.5068 678.777C26.9675 678.237 26.4281 678.237 25.8888 678.237C25.3495 678.237 24.8101 678.237 24.2708 678.777L0.000212371 703.058C-0.539133 703.597 -0.539133 705.216 0.000212371 705.755C0.539558 706.295 1.0789 706.295 1.61825 706.295C2.15759 706.295 2.69694 706.295 3.23629 705.755L27.5068 681.475ZM27.5068 584.353C28.0462 583.813 28.0462 582.194 27.5068 581.655C26.9675 581.115 26.4281 581.115 25.8888 581.115C25.3495 581.115 24.8101 581.115 24.2708 581.655L0.000212371 605.935C-0.539133 606.475 -0.539133 608.094 0.000212371 608.633C0.539558 609.173 1.0789 609.173 1.61825 609.173C2.15759 609.173 2.69694 609.173 3.23629 608.633L27.5068 584.353ZM27.5068 487.23C28.0462 486.691 28.0462 485.072 27.5068 484.532C26.9675 483.993 26.4281 483.993 26.4281 483.993C25.8888 483.993 25.3495 483.993 25.3495 484.532L1.0789 508.813C0.539558 509.353 0.539558 510.971 1.0789 511.511C1.61825 512.05 2.15759 512.05 2.69694 512.05C3.23629 512.05 3.77563 512.05 4.31498 511.511L27.5068 487.23ZM27.5068 391.187C28.0462 390.647 28.0462 389.029 27.5068 388.489C26.9675 387.95 26.4281 387.95 25.8888 387.95C25.3495 387.95 24.8101 387.95 24.2708 388.489L0.000212371 412.77C0.000212371 413.309 0.000212342 414.928 0.539558 415.468C1.0789 416.007 1.61825 416.007 2.15759 416.007C2.69694 416.007 3.23629 416.007 3.77563 415.468L27.5068 391.187ZM27.5068 294.604C28.0462 294.065 28.0462 292.446 27.5068 291.906C27.5068 291.367 26.9675 290.827 26.4281 290.827C25.8888 290.827 25.3495 290.827 24.8101 291.367L0.539558 315.647C0.000212342 316.187 0.000212342 317.806 0.539558 318.345C1.0789 318.885 1.61825 318.885 2.15759 318.885C2.69694 318.885 3.23629 318.885 3.77563 318.345L27.5068 294.604ZM27.5068 197.482C28.0462 196.942 28.0462 195.324 27.5068 194.784C27.5068 194.245 26.9675 193.705 26.4281 193.705C25.8888 193.705 25.3495 193.705 24.8101 194.245L0.539558 218.525C0.000212342 219.065 0.000212342 220.683 0.539558 221.223C1.0789 221.763 1.61825 221.763 2.15759 221.763C2.69694 221.763 3.23629 221.763 3.77563 221.223L27.5068 197.482ZM27.5068 100.36C28.0462 99.8201 28.0462 98.2014 27.5068 97.6619C27.5068 97.1223 26.9675 97.1223 26.4281 97.1223C25.8888 97.1223 25.3495 97.1223 24.8101 97.6619L0.539558 121.942C0.000212342 122.482 0.000212342 124.101 0.539558 124.64C1.0789 125.18 1.61825 125.18 2.15759 125.18C2.69694 125.18 3.23629 125.18 3.77563 124.64L27.5068 100.36ZM27.5068 3.23741C28.0462 2.69784 28.0462 1.07914 27.5068 0.539568C27.5068 0 26.9675 0 26.4281 0C25.8888 0 25.3495 0 24.8101 0.539568L0.539558 24.8201C0.000212342 25.3597 0.000212342 26.9784 0.539558 27.518C1.0789 28.0576 1.61825 28.0576 2.15759 28.0576C2.69694 28.0576 3.23629 28.0576 3.77563 27.518L27.5068 3.23741ZM582.493 896.763C581.954 897.302 581.954 898.921 582.493 899.46C583.033 900 583.572 900 584.112 900C584.651 900 585.19 900 585.73 899.46L610 875.18C610.539 874.64 610.539 873.022 610 872.482C609.461 871.942 608.921 871.942 608.382 871.942C607.843 871.942 607.303 871.942 606.764 872.482L582.493 896.763Z" fill="#EEBC59"/>
</svg>
